<svg xmlns="http://www.w3.org/2000/svg" width="1440" height="900"><path d="M641,377L460,238L485,376Z" fill="#95d284" stroke="#95d284" stroke-width="1.51"/><path d="M641,377L638,168L460,238Z" fill="#98d485" stroke="#98d485" stroke-width="1.51"/><path d="M485,376L402,651L641,377Z" fill="#88cd7f" stroke="#88cd7f" stroke-width="1.51"/><path d="M171,371L402,651L485,376Z" fill="#95d284" stroke="#95d284" stroke-width="1.51"/><path d="M460,238L171,371L485,376Z" fill="#a1d889" stroke="#a1d889" stroke-width="1.51"/><path d="M641,377L1026,155L638,168Z" fill="#8cce80" stroke="#8cce80" stroke-width="1.51"/><path d="M402,651L828,665L641,377Z" fill="#75c475" stroke="#75c475" stroke-width="1.51"/><path d="M1119,461L1026,155L641,377Z" fill="#75c375" stroke="#75c375" stroke-width="1.51"/><path d="M638,168L304,-172L460,238Z" fill="#b2df90" stroke="#b2df90" stroke-width="1.51"/><path d="M460,238L15,44L171,371Z" fill="#b8e293" stroke="#b8e293" stroke-width="1.51"/><path d="M660,-266L304,-172L638,168Z" fill="#bae395" stroke="#bae395" stroke-width="1.51"/><path d="M828,665L1119,461L641,377Z" fill="#68bd70" stroke="#68bd70" stroke-width="1.51"/><path d="M867,1051L939,673L828,665Z" fill="#4baa5f" stroke="#4baa5f" stroke-width="1.51"/><path d="M402,651L867,1051L828,665Z" fill="#5bb267" stroke="#5bb267" stroke-width="1.51"/><path d="M171,371L240,725L402,651Z" fill="#8fce80" stroke="#8fce80" stroke-width="1.51"/><path d="M933,-139L660,-266L638,168Z" fill="#a9db8e" stroke="#a9db8e" stroke-width="1.51"/><path d="M1026,155L933,-139L638,168Z" fill="#95d182" stroke="#95d182" stroke-width="1.51"/><path d="M939,673L1119,461L828,665Z" fill="#55b466" stroke="#55b466" stroke-width="1.51"/><path d="M304,-172L15,44L460,238Z" fill="#c5e799" stroke="#c5e799" stroke-width="1.51"/><path d="M171,371L-165,531L240,725Z" fill="#a0d688" stroke="#a0d688" stroke-width="1.51"/><path d="M304,-172L134,-248L15,44Z" fill="#d8efa3" stroke="#d8efa3" stroke-width="1.51"/><path d="M660,-266L336,-349L304,-172Z" fill="#cdeaa0" stroke="#cdeaa0" stroke-width="1.51"/><path d="M1377,-61L1125,-362L933,-139Z" fill="#96cb81" stroke="#96cb81" stroke-width="1.51"/><path d="M1119,461L1247,275L1026,155Z" fill="#6cba6e" stroke="#6cba6e" stroke-width="1.51"/><path d="M336,-349L134,-248L304,-172Z" fill="#d9f0a6" stroke="#d9f0a6" stroke-width="1.51"/><path d="M240,725L290,923L402,651Z" fill="#7dc174" stroke="#7dc174" stroke-width="1.51"/><path d="M76,966L290,923L240,725Z" fill="#7fbc72" stroke="#7fbc72" stroke-width="1.51"/><path d="M660,-266L740,-402L336,-349Z" fill="#c5e6a0" stroke="#c5e6a0" stroke-width="1.51"/><path d="M933,-139L740,-402L660,-266Z" fill="#b3de94" stroke="#b3de94" stroke-width="1.51"/><path d="M1125,-362L740,-402L933,-139Z" fill="#a9d88f" stroke="#a9d88f" stroke-width="1.51"/><path d="M1119,461L1299,447L1247,275Z" fill="#5db066" stroke="#5db066" stroke-width="1.51"/><path d="M1251,819L1299,447L1119,461Z" fill="#48a75c" stroke="#48a75c" stroke-width="1.51"/><path d="M-204,175L-165,531L171,371Z" fill="#bae296" stroke="#bae296" stroke-width="1.51"/><path d="M15,44L-204,175L171,371Z" fill="#c7e89b" stroke="#c7e89b" stroke-width="1.51"/><path d="M-387,-14L-204,175L15,44Z" fill="#dbf1a7" stroke="#dbf1a7" stroke-width="1.51"/><path d="M-165,531L-59,792L240,725Z" fill="#97d083" stroke="#97d083" stroke-width="1.51"/><path d="M939,673L1251,819L1119,461Z" fill="#45aa5d" stroke="#45aa5d" stroke-width="1.51"/><path d="M731,1169L867,1051L570,1190Z" fill="#489a59" stroke="#489a59" stroke-width="1.51"/><path d="M570,1190L867,1051L402,651Z" fill="#59a861" stroke="#59a861" stroke-width="1.51"/><path d="M-59,792L76,966L240,725Z" fill="#89c378" stroke="#89c378" stroke-width="1.51"/><path d="M23,-379L-113,-236L134,-248Z" fill="#eaf7af" stroke="#eaf7af" stroke-width="1.51"/><path d="M134,-248L-113,-236L15,44Z" fill="#e2f3a9" stroke="#e2f3a9" stroke-width="1.51"/><path d="M336,-349L23,-379L134,-248Z" fill="#e3f4ac" stroke="#e3f4ac" stroke-width="1.51"/><path d="M740,-402L23,-379L336,-349Z" fill="#d6eeaa" stroke="#d6eeaa" stroke-width="1.51"/><path d="M1377,-61L1026,155L1247,275Z" fill="#7abc71" stroke="#7abc71" stroke-width="1.51"/><path d="M1377,-61L933,-139L1026,155Z" fill="#8bc87b" stroke="#8bc87b" stroke-width="1.51"/><path d="M867,1051L1251,819L939,673Z" fill="#3ba056" stroke="#3ba056" stroke-width="1.51"/><path d="M1510,455L1247,275L1299,447Z" fill="#58a860" stroke="#58a860" stroke-width="1.51"/><path d="M1598,297L1377,-61L1247,275Z" fill="#6eaf68" stroke="#6eaf68" stroke-width="1.51"/><path d="M867,1051L1001,1184L1251,819Z" fill="#30944e" stroke="#30944e" stroke-width="1.51"/><path d="M570,1190L402,651L290,923Z" fill="#6cb168" stroke="#6cb168" stroke-width="1.51"/><path d="M154,1287L570,1190L290,923Z" fill="#69a764" stroke="#69a764" stroke-width="1.51"/><path d="M-59,792L-16,1056L76,966Z" fill="#88bc75" stroke="#88bc75" stroke-width="1.51"/><path d="M-165,531L-292,619L-59,792Z" fill="#a3d58b" stroke="#a3d58b" stroke-width="1.51"/><path d="M-366,316L-292,619L-165,531Z" fill="#b6df98" stroke="#b6df98" stroke-width="1.51"/><path d="M1125,-362L1195,-382L740,-402Z" fill="#a5d591" stroke="#a5d591" stroke-width="1.51"/><path d="M1377,-61L1195,-382L1125,-362Z" fill="#97c780" stroke="#97c780" stroke-width="1.51"/><path d="M-387,-14L-366,316L-204,175Z" fill="#d7efa9" stroke="#d7efa9" stroke-width="1.51"/><path d="M-204,175L-366,316L-165,531Z" fill="#c4e69d" stroke="#c4e69d" stroke-width="1.51"/><path d="M76,966L154,1287L290,923Z" fill="#77b06b" stroke="#77b06b" stroke-width="1.51"/><path d="M-573,888L-16,1056L-59,792Z" fill="#93c27d" stroke="#93c27d" stroke-width="1.51"/><path d="M1251,819L1510,455L1299,447Z" fill="#439f57" stroke="#439f57" stroke-width="1.51"/><path d="M-113,-236L-387,-14L15,44Z" fill="#e5f5ab" stroke="#e5f5ab" stroke-width="1.51"/><path d="M23,-379L-160,-347L-113,-236Z" fill="#f0f9b5" stroke="#f0f9b5" stroke-width="1.51"/><path d="M570,1190L851,1214L731,1169Z" fill="#459757" stroke="#459757" stroke-width="1.51"/><path d="M731,1169L851,1214L867,1051Z" fill="#3f9655" stroke="#3f9655" stroke-width="1.51"/><path d="M851,1214L1001,1184L867,1051Z" fill="#369151" stroke="#369151" stroke-width="1.51"/><path d="M1251,819L1651,784L1510,455Z" fill="#30944f" stroke="#30944f" stroke-width="1.51"/><path d="M-160,-347L-387,-14L-113,-236Z" fill="#eff9b3" stroke="#eff9b3" stroke-width="1.51"/><path d="M1510,455L1598,297L1247,275Z" fill="#5aa660" stroke="#5aa660" stroke-width="1.51"/><path d="M1377,-61L1663,-454L1195,-382Z" fill="#90bd7a" stroke="#90bd7a" stroke-width="1.51"/><path d="M-16,1056L154,1287L76,966Z" fill="#7cb06d" stroke="#7cb06d" stroke-width="1.51"/><path d="M570,1190L154,1287L851,1214Z" fill="#559b5c" stroke="#559b5c" stroke-width="1.51"/><path d="M-387,-14L-528,240L-366,316Z" fill="#d6eeb0" stroke="#d6eeb0" stroke-width="1.51"/><path d="M-366,316L-528,240L-292,619Z" fill="#c1e4a5" stroke="#c1e4a5" stroke-width="1.51"/><path d="M1001,1184L1322,1090L1251,819Z" fill="#288a48" stroke="#288a48" stroke-width="1.51"/><path d="M1510,455L1941,315L1598,297Z" fill="#509b5b" stroke="#509b5b" stroke-width="1.51"/><path d="M1598,297L1616,-56L1377,-61Z" fill="#73ad69" stroke="#73ad69" stroke-width="1.51"/><path d="M1001,1184L1229,1204L1322,1090Z" fill="#218345" stroke="#218345" stroke-width="1.51"/><path d="M851,1214L1229,1204L1001,1184Z" fill="#278a4a" stroke="#278a4a" stroke-width="1.51"/><path d="M1712,1290L1229,1204L1841,1346Z" fill="#066637" stroke="#066637" stroke-width="1.51"/><path d="M1598,297L1806,180L1616,-56Z" fill="#67a464" stroke="#67a464" stroke-width="1.51"/><path d="M1322,1090L1651,784L1251,819Z" fill="#258645" stroke="#258645" stroke-width="1.51"/><path d="M1610,1133L1651,784L1322,1090Z" fill="#197a3f" stroke="#197a3f" stroke-width="1.51"/><path d="M1941,315L1806,180L1598,297Z" fill="#58995c" stroke="#58995c" stroke-width="1.51"/><path d="M-292,619L-573,888L-59,792Z" fill="#9ecf8a" stroke="#9ecf8a" stroke-width="1.51"/><path d="M-16,1056L-199,1437L154,1287Z" fill="#7aa76c" stroke="#7aa76c" stroke-width="1.51"/><path d="M-528,240L-573,888L-292,619Z" fill="#b0db9f" stroke="#b0db9f" stroke-width="1.51"/><path d="M-528,240L-509,-443L-573,888Z" fill="#d3edb5" stroke="#d3edb5" stroke-width="1.51"/><path d="M-387,-14L-509,-443L-528,240Z" fill="#ecf8be" stroke="#ecf8be" stroke-width="1.51"/><path d="M-160,-347L-509,-443L-387,-14Z" fill="#f6fcbf" stroke="#f6fcbf" stroke-width="1.51"/><path d="M23,-379L-509,-443L-160,-347Z" fill="#f7fcbf" stroke="#f7fcbf" stroke-width="1.51"/><path d="M740,-402L-509,-443L23,-379Z" fill="#e9f6b6" stroke="#e9f6b6" stroke-width="1.51"/><path d="M1911,-99L1663,-454L1616,-56Z" fill="#80ac6f" stroke="#80ac6f" stroke-width="1.51"/><path d="M1616,-56L1663,-454L1377,-61Z" fill="#85b473" stroke="#85b473" stroke-width="1.51"/><path d="M1195,-382L1663,-454L740,-402Z" fill="#9ccb8c" stroke="#9ccb8c" stroke-width="1.51"/><path d="M740,-402L1663,-454L-509,-443Z" fill="#c2e5a6" stroke="#c2e5a6" stroke-width="1.51"/><path d="M1651,784L1941,315L1510,455Z" fill="#3d9253" stroke="#3d9253" stroke-width="1.51"/><path d="M1229,1204L1610,1133L1322,1090Z" fill="#17783e" stroke="#17783e" stroke-width="1.51"/><path d="M154,1287L-199,1437L851,1214Z" fill="#679c61" stroke="#679c61" stroke-width="1.51"/><path d="M-428,1392L-199,1437L-16,1056Z" fill="#82a870" stroke="#82a870" stroke-width="1.51"/><path d="M1966,742L1941,315L1651,784Z" fill="#2f844b" stroke="#2f844b" stroke-width="1.51"/><path d="M1806,180L1911,-99L1616,-56Z" fill="#70a366" stroke="#70a366" stroke-width="1.51"/><path d="M1941,315L1911,-99L1806,180Z" fill="#63985f" stroke="#63985f" stroke-width="1.51"/><path d="M1917,1108L1966,742L1651,784Z" fill="#18733d" stroke="#18733d" stroke-width="1.51"/><path d="M-573,888L-428,1392L-16,1056Z" fill="#8cb67d" stroke="#8cb67d" stroke-width="1.51"/><path d="M1610,1133L1917,1108L1651,784Z" fill="#10713b" stroke="#10713b" stroke-width="1.51"/><path d="M1229,1204L1712,1290L1610,1133Z" fill="#0c6f3a" stroke="#0c6f3a" stroke-width="1.51"/><path d="M1841,1346L1229,1204L851,1214Z" fill="#17763e" stroke="#17763e" stroke-width="1.51"/><path d="M1911,-99L1937,-388L1663,-454Z" fill="#83a772" stroke="#83a772" stroke-width="1.51"/><path d="M1941,315L1937,-388L1911,-99Z" fill="#729c65" stroke="#729c65" stroke-width="1.51"/><path d="M1966,742L1937,-388L1941,315Z" fill="#59915a" stroke="#59915a" stroke-width="1.51"/><path d="M1712,1290L1917,1108L1610,1133Z" fill="#026637" stroke="#026637" stroke-width="1.51"/><path d="M1712,1290L1841,1346L1917,1108Z" fill="#005e33" stroke="#005e33" stroke-width="1.51"/><path d="M-199,1437L1841,1346L851,1214Z" fill="#38884e" stroke="#38884e" stroke-width="1.51"/></svg>